Coordinates
version=1
nRows=10
nColumns=40
inDegrees=yes

Units are S.I. units (second, meters, Newtons, ...)
Angles are in degrees.

endheader
time	pelvis_tilt	pelvis_list	pelvis_rotation	pelvis_tx	pelvis_ty	pelvis_tz	hip_flexion_r	hip_adduction_r	hip_rotation_r	knee_angle_r	knee_angle_r_beta	ankle_angle_r	subtalar_angle_r	mtp_angle_r	hip_flexion_l	hip_adduction_l	hip_rotation_l	knee_angle_l	knee_angle_l_beta	ankle_angle_l	subtalar_angle_l	mtp_angle_l	lumbar_extension	lumbar_bending	lumbar_rotation	arm_flex_r	arm_add_r	arm_rot_r	elbow_flex_r	pro_sup_r	wrist_flex_r	wrist_dev_r	arm_flex_l	arm_add_l	arm_rot_l	elbow_flex_l	pro_sup_l	wrist_flex_l	wrist_dev_l
     43.15500000	     -5.75582251	     -4.19074813	     -5.46766472	      1.06457448	      0.92836958	      0.41155981	     23.97300709	     -1.64792643	    -13.77048605	      8.00476765	      8.00476765	      1.57373921	     10.06956755	      7.68790276	      5.95132188	     -6.14328778	    -13.61002594	     15.16084501	     15.16084501	     14.06696468	    -10.51099231	     -5.64505368	     -9.25696232	      4.54649628	      2.00785457	     -9.13093268	    -11.44662062	     -2.38495624	     28.37585317	     46.50147302	      0.00000000	      0.00000000	     22.62178447	    -21.47191542	    -13.89681071	     71.84738508	     47.44733716	      0.00000000	      0.00000000
     43.16850000	     -5.78369730	     -4.19381409	     -5.45550027	      1.06594108	      0.92756986	      0.41376354	     23.53997428	     -1.33573901	    -14.27701839	      8.02005771	      8.02005771	      1.48732201	      9.83353224	      7.56146429	      5.44055489	     -6.24265228	    -13.58523562	     15.07271803	     15.07271803	     14.37546320	    -10.50976153	     -5.65655177	     -9.08775929	      4.57894164	      2.01035121	     -9.11408568	    -11.45522646	     -2.37345269	     28.51644150	     46.49287871	      0.00000000	      0.00000000	     22.41670357	    -21.28518735	    -13.82237631	     71.84885446	     47.44240456	      0.00000000	      0.00000000
     43.18200000	     -5.75290110	     -4.25331851	     -5.36029046	      1.06754262	      0.92688272	      0.41607284	     23.04453203	     -1.04527108	    -14.70059983	      8.43069549	      8.43069549	      1.40842704	      9.37265517	      7.21404410	      4.86733230	     -6.40822951	    -13.48155207	     15.00106118	     15.00106118	     14.69848772	    -10.46860820	     -5.63901698	     -8.92998465	      4.69533057	      1.99001296	     -9.00421778	    -11.43940550	     -2.35460377	     28.67832649	     46.48397129	      0.00000000	      0.00000000	     22.07551687	    -20.97758522	    -13.70292911	     71.75786108	     47.43135582	      0.00000000	      0.00000000
     43.19550000	     -5.63109756	     -4.17551381	     -5.27530456	      1.06938497	      0.92595395	      0.41865885	     22.51531865	     -0.82829383	    -14.13867421	      8.98641068	      8.98641068	     -0.63158930	      7.20977120	      0.45927960	      4.32861423	     -6.51289269	    -13.66657786	     15.29434938	     15.29434938	     15.87031093	     -9.74985743	     -4.09527913	     -8.85996592	      4.62792780	      1.94830665	     -9.26085753	    -11.65266995	     -1.73894689	     30.17819339	     46.34545420	      0.00000000	      0.00000000	     21.73491873	    -20.82649439	    -13.58714498	     71.55413631	     47.44302764	      0.00000000	      0.00000000
     43.20900000	     -5.50116527	     -4.30594898	     -5.08474313	      1.07139760	      0.92539612	      0.42110156	     21.93539784	     -0.58834558	    -14.36950912	      9.82294900	      9.82294900	     -0.42709722	      6.72466663	      0.11245697	      3.68089070	     -6.77431466	    -13.46011825	     15.31553230	     15.31553230	     16.19312591	     -9.72676435	     -4.13637763	     -8.75275097	      4.84753262	      1.96114081	     -8.89494213	    -11.64357628	     -1.70647521	     30.30893018	     46.33986982	      0.00000000	      0.00000000	     21.17595482	    -20.29589424	    -13.38202397	     71.29535973	     47.42102398	      0.00000000	      0.00000000
     43.22250000	     -5.35494459	     -4.24599278	     -4.95750198	      1.07333010	      0.92454849	      0.42389429	     21.85030130	     -0.50839928	    -13.38689671	     11.44160816	     11.44160816	     -0.91847565	      4.10312854	     -3.29048751	      3.20863155	     -6.94816606	    -13.59095230	     15.76326982	     15.76326982	     17.10722938	     -9.16408494	     -3.02227321	     -8.62613684	      4.80319019	      1.82353372	     -8.40294991	    -11.84280973	     -0.98773000	     30.54949763	     46.26661060	      0.00000000	      0.00000000	     20.89756884	    -20.15082744	    -13.34483203	     70.23981484	     47.41582552	      0.00000000	      0.00000000
     43.23600000	     -5.16086900	     -4.24349912	     -4.76575597	      1.07540285	      0.92407507	      0.42655973	     21.60901670	     -0.49548333	    -13.18075917	     12.91171562	     12.91171562	     -0.43716697	      3.16960212	     -4.05216162	      2.59628876	     -7.13219941	    -13.51503792	     15.97219056	     15.97219056	     17.40428011	     -9.00059317	     -2.81946110	     -8.58506735	      4.86143315	      1.73285813	     -7.80990041	    -11.94632809	     -0.89196578	     30.84202005	     46.24919518	      0.00000000	      0.00000000	     20.19775929	    -19.80459119	    -13.21963239	     69.65776402	     47.39559622	      0.00000000	      0.00000000
     43.24950000	     -4.96634378	     -4.28065127	     -4.56856224	      1.07753236	      0.92369040	      0.42938442	     21.38869292	     -0.40000827	    -12.70811630	     14.28941733	     14.28941733	      0.11254042	      1.91349839	     -4.71865080	      2.12319693	     -7.41413024	    -13.43595984	     16.47693254	     16.47693254	     17.81108904	     -8.90157380	     -2.53139188	     -8.52146380	      4.95104068	      1.59469281	     -7.08053556	    -12.08217513	     -0.77382330	     31.17855964	     46.22953645	      0.00000000	      0.00000000	     19.46528580	    -19.43479661	    -13.16086769	     68.79479183	     47.37494576	      0.00000000	      0.00000000
     43.26300000	     -4.82329260	     -4.33147945	     -4.38339396	      1.07960581	      0.92346165	      0.43234466	     21.17908575	     -0.23127353	    -12.07983653	     15.42322924	     15.42322924	      0.68160757	      0.58546524	     -5.21947966	      1.83709016	     -7.78100499	    -13.38917181	     17.22757167	     17.22757167	     18.26119695	     -8.69695587	     -2.03693466	     -8.40361693	      5.07391835	      1.47260133	     -6.26129931	    -12.26255543	     -0.57701081	     31.55460233	     46.20245158	      0.00000000	      0.00000000	     18.68562528	    -18.98229973	    -13.20295335	     67.57911178	     47.35589891	      0.00000000	      0.00000000
     43.27650000	     -4.52887015	     -4.38074557	     -4.22533530	      1.08186136	      0.92389396	      0.43534804	     20.56918763	     -0.08849755	    -11.89234023	     16.03014348	     16.03014348	      1.30412246	      0.24935630	     -5.51056410	      1.32084782	     -8.10468654	    -13.27420228	     17.82929838	     17.82929838	     18.25661667	     -8.80691235	     -1.97053309	     -8.46848360	      5.15617501	      1.66739848	     -5.47671986	    -12.41895075	     -0.57564612	     31.84605398	     46.19609900	      0.00000000	      0.00000000	     17.73449521	    -18.21550648	    -12.98582122	     66.98386635	     47.32350677	      0.00000000	      0.00000000
